<svg xmlns="http://www.w3.org/2000/svg" width="20" height="20" viewBox="0 0 20 20" fill="none">
  <path d="M6 4H4.4C4.17909 4 4 4.17909 4 4.4V6C4 6.22091 4.17909 6.4 4.4 6.4H6C6.22091 6.4 6.4 6.22091 6.4 6V4.4C6.4 4.17909 6.22091 4 6 4Z" fill="currentColor"/>
<path d="M10.8 4H9.2C8.97909 4 8.8 4.17909 8.8 4.4V6C8.8 6.22091 8.97909 6.4 9.2 6.4H10.8C11.0209 6.4 11.2 6.22091 11.2 6V4.4C11.2 4.17909 11.0209 4 10.8 4Z" fill="currentColor"/>
<path d="M15.6 4H14C13.7791 4 13.6 4.17909 13.6 4.4V6C13.6 6.22091 13.7791 6.4 14 6.4H15.6C15.8209 6.4 16 6.22091 16 6V4.4C16 4.17909 15.8209 4 15.6 4Z" fill="currentColor"/>
<path d="M6 8.8H4.4C4.17909 8.8 4 8.97909 4 9.2V10.8C4 11.0209 4.17909 11.2 4.4 11.2H6C6.22091 11.2 6.4 11.0209 6.4 10.8V9.2C6.4 8.97909 6.22091 8.8 6 8.8Z" fill="currentColor"/>
<path d="M10.8 8.8H9.2C8.97909 8.8 8.8 8.97909 8.8 9.2V10.8C8.8 11.0209 8.97909 11.2 9.2 11.2H10.8C11.0209 11.2 11.2 11.0209 11.2 10.8V9.2C11.2 8.97909 11.0209 8.8 10.8 8.8Z" fill="currentColor"/>
<path d="M15.6 8.8H14C13.7791 8.8 13.6 8.97909 13.6 9.2V10.8C13.6 11.0209 13.7791 11.2 14 11.2H15.6C15.8209 11.2 16 11.0209 16 10.8V9.2C16 8.97909 15.8209 8.8 15.6 8.8Z" fill="currentColor"/>
<path d="M6 13.6H4.4C4.17909 13.6 4 13.7791 4 14V15.6C4 15.8209 4.17909 16 4.4 16H6C6.22091 16 6.4 15.8209 6.4 15.6V14C6.4 13.7791 6.22091 13.6 6 13.6Z" fill="currentColor"/>
<path d="M10.8 13.6H9.2C8.97909 13.6 8.8 13.7791 8.8 14V15.6C8.8 15.8209 8.97909 16 9.2 16H10.8C11.0209 16 11.2 15.8209 11.2 15.6V14C11.2 13.7791 11.0209 13.6 10.8 13.6Z" fill="currentColor"/>
<path d="M15.6 13.6H14C13.7791 13.6 13.6 13.7791 13.6 14V15.6C13.6 15.8209 13.7791 16 14 16H15.6C15.8209 16 16 15.8209 16 15.6V14C16 13.7791 15.8209 13.6 15.6 13.6Z" fill="currentColor"/>
</svg>