<svg preserveAspectRatio="none" width="100%" height="100%" overflow="visible" style="display: block;" viewBox="0 0 42.6667 38.6667" fill="none" xmlns="http://www.w3.org/2000/svg">
<g id="mnemonic_logo">
<path id="logo" d="M41.603 38.6664H32.9071C32.5293 38.6733 32.1579 38.567 31.8404 38.3609C31.5228 38.1549 31.2733 37.8584 31.1236 37.5093L21.6832 15.2953C21.6585 15.2089 21.6069 15.1327 21.5358 15.0781C21.4648 15.0234 21.3781 14.9933 21.2887 14.9922C21.1994 14.991 21.112 15.0188 21.0395 15.0716C20.9671 15.1243 20.9135 15.1991 20.8866 15.2849L15.0034 29.389C14.9714 29.4653 14.9588 29.5484 14.9665 29.6308C14.9741 29.7132 15.002 29.7925 15.0475 29.8614C15.093 29.9304 15.1547 29.987 15.2272 30.0261C15.2997 30.0652 15.3807 30.0857 15.4629 30.0857H21.9298C22.1257 30.0857 22.3172 30.1438 22.4806 30.2526C22.6439 30.3615 22.7717 30.5164 22.8481 30.6979L25.6794 37.0387C25.7545 37.2167 25.7845 37.4105 25.767 37.603C25.7494 37.7955 25.6847 37.9806 25.5788 38.1418C25.4728 38.303 25.3288 38.4352 25.1596 38.5268C24.9905 38.6183 24.8014 38.6663 24.6094 38.6664H1.06692C0.889845 38.6653 0.715785 38.6202 0.56025 38.535C0.404715 38.4498 0.272538 38.3272 0.175504 38.1782C0.0784688 38.0291 0.01959 37.8582 0.00411623 37.6807C-0.0113576 37.5031 0.017054 37.3245 0.0868187 37.1607L15.0616 1.27229C15.2147 0.892454 15.478 0.567878 15.8171 0.34094C16.1563 0.114002 16.5555 -0.0047533 16.9628 0.00017844H25.5999C26.0072 -0.00525026 26.4068 0.113303 26.746 0.340302C27.0853 0.567301 27.3485 0.892155 27.5012 1.27229L42.5797 37.1607C42.6494 37.3243 42.6779 37.5026 42.6627 37.6799C42.6474 37.8572 42.5888 38.0279 42.4922 38.1769C42.3955 38.3259 42.2637 38.4486 42.1086 38.534C41.9535 38.6193 41.7798 38.6648 41.603 38.6664Z" fill="white"/>
</g>
</svg>
